<mxfile host="app.diagrams.net" modified="2021-08-17T06:41:32.115Z" agent="5.0 (Macintosh; Intel Mac OS X 10_15_6) AppleWebKit/537.36 (KHTML, like Gecko) Chrome/92.0.4515.131 Safari/537.36" etag="qFm1pENMPELW1unGvqzN" version="14.9.7" type="github">
  <diagram name="Page-1" id="97916047-d0de-89f5-080d-49f4d83e522f">
    <mxGraphModel dx="2993" dy="1817" grid="0" gridSize="10" guides="1" tooltips="1" connect="1" arrows="1" fold="1" page="1" pageScale="1.5" pageWidth="4681" pageHeight="3300" background="none" math="0" shadow="0">
      <root>
        <mxCell id="0" />
        <mxCell id="1" parent="0" />
        <mxCell id="XiP37MumvkjMzCkYlwh3-148" style="edgeStyle=orthogonalEdgeStyle;rounded=0;orthogonalLoop=1;jettySize=auto;html=1;exitX=0.55;exitY=0.95;exitDx=0;exitDy=0;exitPerimeter=0;entryX=0.55;entryY=0.95;entryDx=0;entryDy=0;entryPerimeter=0;fontSize=14;fontColor=#33FF33;strokeWidth=2;strokeColor=#FF3333;" parent="1" source="XiP37MumvkjMzCkYlwh3-59" target="XiP37MumvkjMzCkYlwh3-65" edge="1">
          <mxGeometry relative="1" as="geometry">
            <Array as="points">
              <mxPoint x="187" y="225" />
              <mxPoint x="657" y="225" />
            </Array>
          </mxGeometry>
        </mxCell>
        <mxCell id="XiP37MumvkjMzCkYlwh3-149" value="&lt;font color=&quot;#000000&quot;&gt;拉取(购买)&lt;/font&gt;" style="edgeLabel;html=1;align=center;verticalAlign=middle;resizable=0;points=[];fontSize=14;fontColor=#33FF33;" parent="XiP37MumvkjMzCkYlwh3-148" vertex="1" connectable="0">
          <mxGeometry x="-0.0698" y="6" relative="1" as="geometry">
            <mxPoint as="offset" />
          </mxGeometry>
        </mxCell>
        <mxCell id="XiP37MumvkjMzCkYlwh3-59" value="平台仓库" style="ellipse;shape=cloud;whiteSpace=wrap;html=1;fillColor=#008a00;strokeColor=#005700;fontColor=#ffffff;" parent="1" vertex="1">
          <mxGeometry x="121" y="115" width="120" height="80" as="geometry" />
        </mxCell>
        <mxCell id="XiP37MumvkjMzCkYlwh3-132" style="edgeStyle=orthogonalEdgeStyle;rounded=0;orthogonalLoop=1;jettySize=auto;html=1;exitX=0.16;exitY=0.55;exitDx=0;exitDy=0;exitPerimeter=0;fontSize=14;strokeWidth=2;strokeColor=#97D077;" parent="1" source="XiP37MumvkjMzCkYlwh3-65" edge="1">
          <mxGeometry relative="1" as="geometry">
            <mxPoint x="231" y="159.47058823529414" as="targetPoint" />
          </mxGeometry>
        </mxCell>
        <mxCell id="XiP37MumvkjMzCkYlwh3-133" value="共享" style="edgeLabel;html=1;align=center;verticalAlign=middle;resizable=0;points=[];fontSize=14;" parent="XiP37MumvkjMzCkYlwh3-132" vertex="1" connectable="0">
          <mxGeometry x="-0.0399" y="-1" relative="1" as="geometry">
            <mxPoint x="-9" as="offset" />
          </mxGeometry>
        </mxCell>
        <mxCell id="XiP37MumvkjMzCkYlwh3-150" style="edgeStyle=orthogonalEdgeStyle;rounded=0;orthogonalLoop=1;jettySize=auto;html=1;exitX=0.8;exitY=0.8;exitDx=0;exitDy=0;exitPerimeter=0;entryX=1;entryY=0.75;entryDx=0;entryDy=0;fontSize=14;fontColor=#33FF33;strokeWidth=2;strokeColor=#FF3333;" parent="1" source="XiP37MumvkjMzCkYlwh3-65" target="XiP37MumvkjMzCkYlwh3-97" edge="1">
          <mxGeometry relative="1" as="geometry">
            <Array as="points">
              <mxPoint x="771" y="179" />
              <mxPoint x="771" y="705" />
              <mxPoint x="691" y="705" />
              <mxPoint x="691" y="713" />
            </Array>
          </mxGeometry>
        </mxCell>
        <mxCell id="XiP37MumvkjMzCkYlwh3-153" value="&lt;font color=&quot;#000000&quot;&gt;下发(克隆|引用)&lt;/font&gt;" style="edgeLabel;html=1;align=center;verticalAlign=middle;resizable=0;points=[];fontSize=14;fontColor=#33FF33;" parent="XiP37MumvkjMzCkYlwh3-150" vertex="1" connectable="0">
          <mxGeometry x="-0.126" y="-2" relative="1" as="geometry">
            <mxPoint as="offset" />
          </mxGeometry>
        </mxCell>
        <mxCell id="XiP37MumvkjMzCkYlwh3-65" value="租户仓库" style="ellipse;shape=cloud;whiteSpace=wrap;html=1;fontSize=14;fillColor=#ffe6cc;strokeColor=#d79b00;" parent="1" vertex="1">
          <mxGeometry x="591" y="115" width="120" height="80" as="geometry" />
        </mxCell>
        <mxCell id="XiP37MumvkjMzCkYlwh3-67" value="" style="rounded=1;whiteSpace=wrap;html=1;fontSize=14;fillColor=#f8cecc;strokeColor=#b85450;" parent="1" vertex="1">
          <mxGeometry x="191" y="635" width="118" height="102" as="geometry" />
        </mxCell>
        <mxCell id="XiP37MumvkjMzCkYlwh3-72" value="tenant" style="shape=umlActor;verticalLabelPosition=bottom;verticalAlign=top;html=1;outlineConnect=0;fontSize=14;fillColor=#ffff88;strokeColor=#36393d;" parent="1" vertex="1">
          <mxGeometry x="431" y="285" width="30" height="60" as="geometry" />
        </mxCell>
        <mxCell id="XiP37MumvkjMzCkYlwh3-77" value="service1" style="rounded=0;whiteSpace=wrap;html=1;fontSize=14;fillColor=#d5e8d4;strokeColor=#82b366;" parent="1" vertex="1">
          <mxGeometry x="210" y="677" width="80" height="20" as="geometry" />
        </mxCell>
        <mxCell id="XiP37MumvkjMzCkYlwh3-78" value="service2" style="rounded=0;whiteSpace=wrap;html=1;fontSize=14;fillColor=#d5e8d4;strokeColor=#82b366;" parent="1" vertex="1">
          <mxGeometry x="210" y="697" width="80" height="20" as="geometry" />
        </mxCell>
        <mxCell id="XiP37MumvkjMzCkYlwh3-79" value="service3" style="rounded=0;whiteSpace=wrap;html=1;fontSize=14;fillColor=#d5e8d4;strokeColor=#82b366;" parent="1" vertex="1">
          <mxGeometry x="210" y="717" width="80" height="20" as="geometry" />
        </mxCell>
        <mxCell id="XiP37MumvkjMzCkYlwh3-91" value="Project1" style="text;html=1;strokeColor=none;fillColor=none;align=center;verticalAlign=middle;whiteSpace=wrap;rounded=0;fontSize=14;" parent="1" vertex="1">
          <mxGeometry x="223" y="639" width="40" height="20" as="geometry" />
        </mxCell>
        <mxCell id="XiP37MumvkjMzCkYlwh3-92" value="" style="rounded=1;whiteSpace=wrap;html=1;fontSize=14;fillColor=#f8cecc;strokeColor=#b85450;" parent="1" vertex="1">
          <mxGeometry x="383" y="635" width="118" height="102" as="geometry" />
        </mxCell>
        <mxCell id="XiP37MumvkjMzCkYlwh3-93" value="service1" style="rounded=0;whiteSpace=wrap;html=1;fontSize=14;fillColor=#d5e8d4;strokeColor=#82b366;" parent="1" vertex="1">
          <mxGeometry x="402" y="677" width="80" height="20" as="geometry" />
        </mxCell>
        <mxCell id="XiP37MumvkjMzCkYlwh3-94" value="service2" style="rounded=0;whiteSpace=wrap;html=1;fontSize=14;fillColor=#d5e8d4;strokeColor=#82b366;" parent="1" vertex="1">
          <mxGeometry x="402" y="699" width="80" height="16" as="geometry" />
        </mxCell>
        <mxCell id="XiP37MumvkjMzCkYlwh3-95" value="service3" style="rounded=0;whiteSpace=wrap;html=1;fontSize=14;fillColor=#d5e8d4;strokeColor=#82b366;" parent="1" vertex="1">
          <mxGeometry x="402" y="717" width="80" height="20" as="geometry" />
        </mxCell>
        <mxCell id="XiP37MumvkjMzCkYlwh3-96" value="Project2" style="text;html=1;strokeColor=none;fillColor=none;align=center;verticalAlign=middle;whiteSpace=wrap;rounded=0;fontSize=14;" parent="1" vertex="1">
          <mxGeometry x="415" y="639" width="40" height="20" as="geometry" />
        </mxCell>
        <mxCell id="XiP37MumvkjMzCkYlwh3-97" value="" style="rounded=1;whiteSpace=wrap;html=1;fontSize=14;fillColor=#f8cecc;strokeColor=#b85450;" parent="1" vertex="1">
          <mxGeometry x="583" y="636" width="118" height="102" as="geometry" />
        </mxCell>
        <mxCell id="XiP37MumvkjMzCkYlwh3-98" value="service1" style="rounded=0;whiteSpace=wrap;html=1;fontSize=14;fillColor=#d5e8d4;strokeColor=#82b366;" parent="1" vertex="1">
          <mxGeometry x="602" y="678" width="80" height="20" as="geometry" />
        </mxCell>
        <mxCell id="XiP37MumvkjMzCkYlwh3-99" value="service2" style="rounded=0;whiteSpace=wrap;html=1;fontSize=14;fillColor=#d5e8d4;strokeColor=#82b366;" parent="1" vertex="1">
          <mxGeometry x="602" y="698" width="80" height="20" as="geometry" />
        </mxCell>
        <mxCell id="mb0j57fvCN2QoR91kA2i-7" style="edgeStyle=orthogonalEdgeStyle;rounded=0;orthogonalLoop=1;jettySize=auto;html=1;exitX=1;exitY=0.5;exitDx=0;exitDy=0;entryX=0;entryY=0.5;entryDx=0;entryDy=0;entryPerimeter=0;strokeWidth=2;strokeColor=#97D077;" parent="1" source="XiP37MumvkjMzCkYlwh3-100" target="mb0j57fvCN2QoR91kA2i-4" edge="1">
          <mxGeometry relative="1" as="geometry" />
        </mxCell>
        <mxCell id="mb0j57fvCN2QoR91kA2i-8" value="发版" style="edgeLabel;html=1;align=center;verticalAlign=middle;resizable=0;points=[];" parent="mb0j57fvCN2QoR91kA2i-7" vertex="1" connectable="0">
          <mxGeometry x="-0.0757" relative="1" as="geometry">
            <mxPoint x="11" as="offset" />
          </mxGeometry>
        </mxCell>
        <mxCell id="XiP37MumvkjMzCkYlwh3-100" value="service3" style="rounded=0;whiteSpace=wrap;html=1;fontSize=14;fillColor=#d5e8d4;strokeColor=#82b366;" parent="1" vertex="1">
          <mxGeometry x="602" y="718" width="80" height="20" as="geometry" />
        </mxCell>
        <mxCell id="XiP37MumvkjMzCkYlwh3-101" value="Project1" style="text;html=1;strokeColor=none;fillColor=none;align=center;verticalAlign=middle;whiteSpace=wrap;rounded=0;fontSize=14;" parent="1" vertex="1">
          <mxGeometry x="615" y="640" width="40" height="20" as="geometry" />
        </mxCell>
        <mxCell id="XiP37MumvkjMzCkYlwh3-104" value="&lt;div style=&quot;text-align: left&quot;&gt;&lt;span&gt;总体：&lt;/span&gt;&lt;/div&gt;&lt;div style=&quot;text-align: left&quot;&gt;&lt;span&gt;1，租户(用户)创建项目可以指定不同的公司人员管理该项目&lt;/span&gt;&lt;/div&gt;&lt;div style=&quot;text-align: left&quot;&gt;&lt;span&gt;2，每个项目下的服务来源有两种(自研｜下发[引用和克隆])&lt;/span&gt;&lt;/div&gt;&lt;div style=&quot;text-align: left&quot;&gt;&lt;span&gt;3，每个租户下服务租户可以共享到租户仓库然后推到平台仓库&lt;/span&gt;&lt;/div&gt;&lt;div style=&quot;text-align: left&quot;&gt;&lt;span&gt;&lt;br&gt;&lt;/span&gt;&lt;/div&gt;" style="shape=ext;double=1;rounded=0;whiteSpace=wrap;html=1;fontSize=14;fillColor=#f9f7ed;strokeColor=#36393d;" parent="1" vertex="1">
          <mxGeometry x="1061" y="285" width="410" height="90" as="geometry" />
        </mxCell>
        <mxCell id="XiP37MumvkjMzCkYlwh3-118" style="edgeStyle=orthogonalEdgeStyle;rounded=0;orthogonalLoop=1;jettySize=auto;html=1;exitX=0;exitY=1;exitDx=0;exitDy=0;exitPerimeter=0;entryX=0.5;entryY=0;entryDx=0;entryDy=0;fontSize=14;" parent="1" source="XiP37MumvkjMzCkYlwh3-109" target="XiP37MumvkjMzCkYlwh3-67" edge="1">
          <mxGeometry relative="1" as="geometry" />
        </mxCell>
        <mxCell id="XiP37MumvkjMzCkYlwh3-123" value="创建|参与pro" style="edgeLabel;html=1;align=center;verticalAlign=middle;resizable=0;points=[];fontSize=14;" parent="XiP37MumvkjMzCkYlwh3-118" vertex="1" connectable="0">
          <mxGeometry x="0.01" y="2" relative="1" as="geometry">
            <mxPoint as="offset" />
          </mxGeometry>
        </mxCell>
        <mxCell id="XiP37MumvkjMzCkYlwh3-119" style="edgeStyle=orthogonalEdgeStyle;rounded=0;orthogonalLoop=1;jettySize=auto;html=1;exitX=1;exitY=1;exitDx=0;exitDy=0;exitPerimeter=0;fontSize=14;entryX=0.5;entryY=0;entryDx=0;entryDy=0;" parent="1" source="XiP37MumvkjMzCkYlwh3-109" target="XiP37MumvkjMzCkYlwh3-92" edge="1">
          <mxGeometry relative="1" as="geometry">
            <mxPoint x="442" y="615" as="targetPoint" />
          </mxGeometry>
        </mxCell>
        <mxCell id="XiP37MumvkjMzCkYlwh3-124" style="edgeStyle=orthogonalEdgeStyle;rounded=0;orthogonalLoop=1;jettySize=auto;html=1;exitX=0;exitY=0.3333333333333333;exitDx=0;exitDy=0;exitPerimeter=0;fontSize=14;entryX=0;entryY=0.5;entryDx=0;entryDy=0;" parent="1" source="XiP37MumvkjMzCkYlwh3-109" target="XiP37MumvkjMzCkYlwh3-77" edge="1">
          <mxGeometry relative="1" as="geometry">
            <mxPoint x="161" y="845" as="targetPoint" />
            <Array as="points">
              <mxPoint x="91" y="475" />
              <mxPoint x="91" y="687" />
            </Array>
          </mxGeometry>
        </mxCell>
        <mxCell id="XiP37MumvkjMzCkYlwh3-125" value="创建|参与" style="edgeLabel;html=1;align=center;verticalAlign=middle;resizable=0;points=[];fontSize=14;" parent="XiP37MumvkjMzCkYlwh3-124" vertex="1" connectable="0">
          <mxGeometry x="0.0477" y="-1" relative="1" as="geometry">
            <mxPoint as="offset" />
          </mxGeometry>
        </mxCell>
        <mxCell id="XiP37MumvkjMzCkYlwh3-109" value="userA" style="shape=umlActor;verticalLabelPosition=bottom;verticalAlign=top;html=1;outlineConnect=0;fontSize=14;fillColor=#ffff88;strokeColor=#36393d;" parent="1" vertex="1">
          <mxGeometry x="342" y="455" width="30" height="60" as="geometry" />
        </mxCell>
        <mxCell id="XiP37MumvkjMzCkYlwh3-120" style="edgeStyle=orthogonalEdgeStyle;rounded=0;orthogonalLoop=1;jettySize=auto;html=1;exitX=0;exitY=1;exitDx=0;exitDy=0;exitPerimeter=0;entryX=0.75;entryY=0;entryDx=0;entryDy=0;fontSize=14;" parent="1" source="XiP37MumvkjMzCkYlwh3-113" target="XiP37MumvkjMzCkYlwh3-92" edge="1">
          <mxGeometry relative="1" as="geometry" />
        </mxCell>
        <mxCell id="XiP37MumvkjMzCkYlwh3-121" style="edgeStyle=orthogonalEdgeStyle;rounded=0;orthogonalLoop=1;jettySize=auto;html=1;exitX=1;exitY=1;exitDx=0;exitDy=0;exitPerimeter=0;entryX=0.5;entryY=0;entryDx=0;entryDy=0;fontSize=14;" parent="1" source="XiP37MumvkjMzCkYlwh3-113" target="XiP37MumvkjMzCkYlwh3-101" edge="1">
          <mxGeometry relative="1" as="geometry" />
        </mxCell>
        <mxCell id="XiP37MumvkjMzCkYlwh3-113" value="userB" style="shape=umlActor;verticalLabelPosition=bottom;verticalAlign=top;html=1;outlineConnect=0;fontSize=14;fillColor=#ffff88;strokeColor=#36393d;" parent="1" vertex="1">
          <mxGeometry x="531" y="455" width="30" height="60" as="geometry" />
        </mxCell>
        <mxCell id="XiP37MumvkjMzCkYlwh3-134" value="1，平台仓库上的服务，任何租户都可购买到租户仓库使用（购买）&lt;br&gt;2，租户也可将自己的服务上传至平台仓库出售（出售）" style="shape=ext;double=1;rounded=0;whiteSpace=wrap;html=1;fontSize=14;align=left;fillColor=#f9f7ed;strokeColor=#36393d;" parent="1" vertex="1">
          <mxGeometry x="63" y="255" width="218" height="80" as="geometry" />
        </mxCell>
        <mxCell id="XiP37MumvkjMzCkYlwh3-135" value="" style="endArrow=none;dashed=1;html=1;dashPattern=1 3;strokeWidth=2;fontSize=14;entryX=0.31;entryY=0.8;entryDx=0;entryDy=0;entryPerimeter=0;" parent="1" target="XiP37MumvkjMzCkYlwh3-59" edge="1">
          <mxGeometry width="50" height="50" relative="1" as="geometry">
            <mxPoint x="141" y="255" as="sourcePoint" />
            <mxPoint x="161" y="205" as="targetPoint" />
          </mxGeometry>
        </mxCell>
        <mxCell id="XiP37MumvkjMzCkYlwh3-152" value="" style="endArrow=classic;html=1;fontSize=14;fontColor=#33FF33;strokeWidth=2;strokeColor=#FF3333;" parent="1" edge="1">
          <mxGeometry width="50" height="50" relative="1" as="geometry">
            <mxPoint x="721" y="705" as="sourcePoint" />
            <mxPoint x="671" y="705" as="targetPoint" />
          </mxGeometry>
        </mxCell>
        <mxCell id="XiP37MumvkjMzCkYlwh3-155" value="&lt;font color=&quot;#000000&quot;&gt;1，为生么要有平台仓库？&lt;br&gt;2，引用和下发的区别以及作用&lt;br&gt;&lt;br&gt;&lt;/font&gt;" style="shape=ext;double=1;rounded=0;whiteSpace=wrap;html=1;fontSize=14;align=left;fillColor=#f9f7ed;strokeColor=#36393d;" parent="1" vertex="1">
          <mxGeometry x="1061" y="115" width="230" height="80" as="geometry" />
        </mxCell>
        <mxCell id="XiP37MumvkjMzCkYlwh3-160" value="&lt;font color=&quot;#000000&quot;&gt;part_1:整体图&lt;/font&gt;" style="shape=delay;whiteSpace=wrap;html=1;fontSize=14;fontColor=#000000;align=left;fillColor=#fa6800;strokeColor=#C73500;" parent="1" vertex="1">
          <mxGeometry y="40" width="140" height="40" as="geometry" />
        </mxCell>
        <mxCell id="mb0j57fvCN2QoR91kA2i-16" style="edgeStyle=orthogonalEdgeStyle;rounded=0;orthogonalLoop=1;jettySize=auto;html=1;exitX=0.5;exitY=0;exitDx=0;exitDy=0;entryX=0.875;entryY=0.5;entryDx=0;entryDy=0;entryPerimeter=0;strokeWidth=2;strokeColor=#97D077;" parent="1" source="mb0j57fvCN2QoR91kA2i-2" target="XiP37MumvkjMzCkYlwh3-65" edge="1">
          <mxGeometry relative="1" as="geometry">
            <Array as="points">
              <mxPoint x="900" y="155" />
            </Array>
          </mxGeometry>
        </mxCell>
        <mxCell id="mb0j57fvCN2QoR91kA2i-2" value="&lt;font style=&quot;font-size: 14px&quot;&gt;发布(成功)&lt;/font&gt;" style="rounded=0;whiteSpace=wrap;html=1;" parent="1" vertex="1">
          <mxGeometry x="850" y="550" width="100" height="40" as="geometry" />
        </mxCell>
        <mxCell id="mb0j57fvCN2QoR91kA2i-15" style="edgeStyle=orthogonalEdgeStyle;rounded=0;orthogonalLoop=1;jettySize=auto;html=1;exitX=0.5;exitY=0;exitDx=0;exitDy=0;exitPerimeter=0;entryX=0.5;entryY=1;entryDx=0;entryDy=0;strokeWidth=2;strokeColor=#97D077;" parent="1" source="mb0j57fvCN2QoR91kA2i-4" target="mb0j57fvCN2QoR91kA2i-2" edge="1">
          <mxGeometry relative="1" as="geometry" />
        </mxCell>
        <mxCell id="mb0j57fvCN2QoR91kA2i-4" value="&lt;br&gt;DB" style="strokeWidth=2;html=1;shape=mxgraph.flowchart.database;whiteSpace=wrap;fillColor=#f8cecc;strokeColor=#b85450;" parent="1" vertex="1">
          <mxGeometry x="870" y="699" width="60" height="60" as="geometry" />
        </mxCell>
        <mxCell id="mb0j57fvCN2QoR91kA2i-9" value="&lt;font style=&quot;font-size: 11px&quot; color=&quot;#ff0080&quot;&gt;service_snapshot&lt;/font&gt;" style="rounded=0;whiteSpace=wrap;html=1;fontSize=14;fillColor=#dae8fc;strokeColor=#6c8ebf;" parent="1" vertex="1">
          <mxGeometry x="730" y="738" width="100" height="20" as="geometry" />
        </mxCell>
        <mxCell id="cBf-o_3Lq7rXrhT4jhTr-19" value="" style="rounded=0;whiteSpace=wrap;html=1;" vertex="1" parent="1">
          <mxGeometry x="653" y="1193" width="580" height="441" as="geometry" />
        </mxCell>
        <mxCell id="cBf-o_3Lq7rXrhT4jhTr-21" value="" style="rounded=1;whiteSpace=wrap;html=1;fontSize=14;fillColor=#f8cecc;strokeColor=#b85450;" vertex="1" parent="1">
          <mxGeometry x="739" y="1418" width="118" height="102" as="geometry" />
        </mxCell>
        <mxCell id="cBf-o_3Lq7rXrhT4jhTr-22" value="service1" style="rounded=0;whiteSpace=wrap;html=1;fontSize=14;fillColor=#d5e8d4;strokeColor=#82b366;" vertex="1" parent="1">
          <mxGeometry x="758" y="1460" width="80" height="20" as="geometry" />
        </mxCell>
        <mxCell id="cBf-o_3Lq7rXrhT4jhTr-23" value="service2" style="rounded=0;whiteSpace=wrap;html=1;fontSize=14;fillColor=#d5e8d4;strokeColor=#82b366;" vertex="1" parent="1">
          <mxGeometry x="758" y="1480" width="80" height="20" as="geometry" />
        </mxCell>
        <mxCell id="cBf-o_3Lq7rXrhT4jhTr-25" value="ProjectA" style="text;html=1;strokeColor=none;fillColor=none;align=center;verticalAlign=middle;whiteSpace=wrap;rounded=0;fontSize=14;" vertex="1" parent="1">
          <mxGeometry x="771" y="1422" width="40" height="20" as="geometry" />
        </mxCell>
        <mxCell id="cBf-o_3Lq7rXrhT4jhTr-26" value="tenant" style="shape=umlActor;verticalLabelPosition=bottom;verticalAlign=top;html=1;outlineConnect=0;fontSize=14;fillColor=#ffff88;strokeColor=#36393d;" vertex="1" parent="1">
          <mxGeometry x="776" y="1335" width="30" height="60" as="geometry" />
        </mxCell>
        <mxCell id="cBf-o_3Lq7rXrhT4jhTr-27" value="租户仓库&lt;br&gt;&lt;br&gt;" style="ellipse;shape=cloud;whiteSpace=wrap;html=1;fontSize=14;fillColor=#ffe6cc;strokeColor=#d79b00;" vertex="1" parent="1">
          <mxGeometry x="864" y="1226" width="125" height="88" as="geometry" />
        </mxCell>
        <mxCell id="cBf-o_3Lq7rXrhT4jhTr-29" value="" style="rounded=1;whiteSpace=wrap;html=1;fontSize=14;fillColor=#f8cecc;strokeColor=#b85450;" vertex="1" parent="1">
          <mxGeometry x="969" y="1419" width="118" height="102" as="geometry" />
        </mxCell>
        <mxCell id="cBf-o_3Lq7rXrhT4jhTr-30" value="service1" style="rounded=0;whiteSpace=wrap;html=1;fontSize=14;fillColor=#d5e8d4;strokeColor=#82b366;" vertex="1" parent="1">
          <mxGeometry x="988" y="1461" width="80" height="20" as="geometry" />
        </mxCell>
        <mxCell id="cBf-o_3Lq7rXrhT4jhTr-33" value="ProjectB" style="text;html=1;strokeColor=none;fillColor=none;align=center;verticalAlign=middle;whiteSpace=wrap;rounded=0;fontSize=14;" vertex="1" parent="1">
          <mxGeometry x="1001" y="1423" width="40" height="20" as="geometry" />
        </mxCell>
        <mxCell id="cBf-o_3Lq7rXrhT4jhTr-35" value="serviceC" style="rounded=0;whiteSpace=wrap;html=1;fontSize=14;fillColor=#e51400;strokeColor=#B20000;fontColor=#ffffff;" vertex="1" parent="1">
          <mxGeometry x="901" y="1274" width="61" height="20" as="geometry" />
        </mxCell>
        <mxCell id="cBf-o_3Lq7rXrhT4jhTr-37" value="" style="rounded=0;whiteSpace=wrap;html=1;" vertex="1" parent="1">
          <mxGeometry x="667" y="1787" width="580" height="441" as="geometry" />
        </mxCell>
        <mxCell id="cBf-o_3Lq7rXrhT4jhTr-38" value="" style="rounded=1;whiteSpace=wrap;html=1;fontSize=14;fillColor=#f8cecc;strokeColor=#b85450;" vertex="1" parent="1">
          <mxGeometry x="753" y="2012" width="118" height="102" as="geometry" />
        </mxCell>
        <mxCell id="cBf-o_3Lq7rXrhT4jhTr-39" value="service1" style="rounded=0;whiteSpace=wrap;html=1;fontSize=14;fillColor=#d5e8d4;strokeColor=#82b366;" vertex="1" parent="1">
          <mxGeometry x="772" y="2054" width="80" height="20" as="geometry" />
        </mxCell>
        <mxCell id="cBf-o_3Lq7rXrhT4jhTr-40" value="service2" style="rounded=0;whiteSpace=wrap;html=1;fontSize=14;fillColor=#d5e8d4;strokeColor=#82b366;" vertex="1" parent="1">
          <mxGeometry x="772" y="2074" width="80" height="20" as="geometry" />
        </mxCell>
        <mxCell id="cBf-o_3Lq7rXrhT4jhTr-41" value="ProjectA" style="text;html=1;strokeColor=none;fillColor=none;align=center;verticalAlign=middle;whiteSpace=wrap;rounded=0;fontSize=14;" vertex="1" parent="1">
          <mxGeometry x="785" y="2016" width="40" height="20" as="geometry" />
        </mxCell>
        <mxCell id="cBf-o_3Lq7rXrhT4jhTr-42" value="tenant" style="shape=umlActor;verticalLabelPosition=bottom;verticalAlign=top;html=1;outlineConnect=0;fontSize=14;fillColor=#ffff88;strokeColor=#36393d;" vertex="1" parent="1">
          <mxGeometry x="790" y="1929" width="30" height="60" as="geometry" />
        </mxCell>
        <mxCell id="cBf-o_3Lq7rXrhT4jhTr-43" value="租户仓库" style="ellipse;shape=cloud;whiteSpace=wrap;html=1;fontSize=14;fillColor=#ffe6cc;strokeColor=#d79b00;" vertex="1" parent="1">
          <mxGeometry x="878" y="1820" width="125" height="88" as="geometry" />
        </mxCell>
        <mxCell id="cBf-o_3Lq7rXrhT4jhTr-44" value="" style="rounded=1;whiteSpace=wrap;html=1;fontSize=14;fillColor=#f8cecc;strokeColor=#b85450;" vertex="1" parent="1">
          <mxGeometry x="983" y="2013" width="118" height="102" as="geometry" />
        </mxCell>
        <mxCell id="cBf-o_3Lq7rXrhT4jhTr-45" value="service1" style="rounded=0;whiteSpace=wrap;html=1;fontSize=14;fillColor=#d5e8d4;strokeColor=#82b366;" vertex="1" parent="1">
          <mxGeometry x="1002" y="2055" width="80" height="20" as="geometry" />
        </mxCell>
        <mxCell id="cBf-o_3Lq7rXrhT4jhTr-46" value="ProjectB" style="text;html=1;strokeColor=none;fillColor=none;align=center;verticalAlign=middle;whiteSpace=wrap;rounded=0;fontSize=14;" vertex="1" parent="1">
          <mxGeometry x="1015" y="2017" width="40" height="20" as="geometry" />
        </mxCell>
        <mxCell id="cBf-o_3Lq7rXrhT4jhTr-49" value="" style="rounded=0;whiteSpace=wrap;html=1;" vertex="1" parent="1">
          <mxGeometry x="673" y="2425" width="580" height="441" as="geometry" />
        </mxCell>
        <mxCell id="cBf-o_3Lq7rXrhT4jhTr-50" value="" style="rounded=1;whiteSpace=wrap;html=1;fontSize=14;fillColor=#f8cecc;strokeColor=#b85450;" vertex="1" parent="1">
          <mxGeometry x="759" y="2650" width="118" height="102" as="geometry" />
        </mxCell>
        <mxCell id="cBf-o_3Lq7rXrhT4jhTr-51" value="service1" style="rounded=0;whiteSpace=wrap;html=1;fontSize=14;fillColor=#d5e8d4;strokeColor=#82b366;" vertex="1" parent="1">
          <mxGeometry x="778" y="2692" width="80" height="20" as="geometry" />
        </mxCell>
        <mxCell id="cBf-o_3Lq7rXrhT4jhTr-52" value="service2" style="rounded=0;whiteSpace=wrap;html=1;fontSize=14;fillColor=#d5e8d4;strokeColor=#82b366;" vertex="1" parent="1">
          <mxGeometry x="778" y="2712" width="80" height="20" as="geometry" />
        </mxCell>
        <mxCell id="cBf-o_3Lq7rXrhT4jhTr-53" value="ProjectA" style="text;html=1;strokeColor=none;fillColor=none;align=center;verticalAlign=middle;whiteSpace=wrap;rounded=0;fontSize=14;" vertex="1" parent="1">
          <mxGeometry x="791" y="2654" width="40" height="20" as="geometry" />
        </mxCell>
        <mxCell id="cBf-o_3Lq7rXrhT4jhTr-54" value="tenant" style="shape=umlActor;verticalLabelPosition=bottom;verticalAlign=top;html=1;outlineConnect=0;fontSize=14;fillColor=#ffff88;strokeColor=#36393d;" vertex="1" parent="1">
          <mxGeometry x="796" y="2567" width="30" height="60" as="geometry" />
        </mxCell>
        <mxCell id="cBf-o_3Lq7rXrhT4jhTr-55" value="租户仓库&lt;br&gt;&lt;br&gt;" style="ellipse;shape=cloud;whiteSpace=wrap;html=1;fontSize=14;fillColor=#ffe6cc;strokeColor=#d79b00;" vertex="1" parent="1">
          <mxGeometry x="884" y="2458" width="125" height="88" as="geometry" />
        </mxCell>
        <mxCell id="cBf-o_3Lq7rXrhT4jhTr-56" value="" style="rounded=1;whiteSpace=wrap;html=1;fontSize=14;fillColor=#f8cecc;strokeColor=#b85450;" vertex="1" parent="1">
          <mxGeometry x="989" y="2651" width="118" height="102" as="geometry" />
        </mxCell>
        <mxCell id="cBf-o_3Lq7rXrhT4jhTr-57" value="service1" style="rounded=0;whiteSpace=wrap;html=1;fontSize=14;fillColor=#d5e8d4;strokeColor=#82b366;" vertex="1" parent="1">
          <mxGeometry x="1008" y="2693" width="80" height="20" as="geometry" />
        </mxCell>
        <mxCell id="cBf-o_3Lq7rXrhT4jhTr-58" value="ProjectB" style="text;html=1;strokeColor=none;fillColor=none;align=center;verticalAlign=middle;whiteSpace=wrap;rounded=0;fontSize=14;" vertex="1" parent="1">
          <mxGeometry x="1021" y="2655" width="40" height="20" as="geometry" />
        </mxCell>
        <mxCell id="cBf-o_3Lq7rXrhT4jhTr-59" value="serviceC" style="rounded=0;whiteSpace=wrap;html=1;fontSize=14;fillColor=#e51400;strokeColor=#B20000;fontColor=#ffffff;" vertex="1" parent="1">
          <mxGeometry x="921" y="2506" width="61" height="20" as="geometry" />
        </mxCell>
        <mxCell id="cBf-o_3Lq7rXrhT4jhTr-60" value="serviceC" style="rounded=0;whiteSpace=wrap;html=1;fontSize=14;fillColor=#e51400;strokeColor=#B20000;fontColor=#ffffff;" vertex="1" parent="1">
          <mxGeometry x="1002" y="2076" width="80" height="20" as="geometry" />
        </mxCell>
        <mxCell id="cBf-o_3Lq7rXrhT4jhTr-61" value="serviceC" style="rounded=0;whiteSpace=wrap;html=1;fontSize=14;fillColor=#e51400;strokeColor=#B20000;fontColor=#ffffff;" vertex="1" parent="1">
          <mxGeometry x="778" y="2732" width="80" height="20" as="geometry" />
        </mxCell>
      </root>
    </mxGraphModel>
  </diagram>
</mxfile>
